<?xml version="1.0" encoding="UTF-8"?>
<svg version="1.1" xmlns="http://www.w3.org/2000/svg" width="1024" height="1024">
<path d="M0 0 C337.92 0 675.84 0 1024 0 C1024 337.92 1024 675.84 1024 1024 C686.08 1024 348.16 1024 0 1024 C0 686.08 0 348.16 0 0 Z " fill="#4A7DA5" transform="translate(0,0)"/>
<path d="M0 0 C336.93 0 673.86 0 1021 0 C1016.96260237 4.71029723 1012.94823466 9.1968622 1008.57080078 13.55859375 C1007.95854645 14.1726004 1007.34629211 14.78660706 1006.71548462 15.41921997 C1004.71125085 17.42781842 1002.70342445 19.43277937 1000.6953125 21.4375 C999.28801124 22.84547593 997.88085837 24.25360019 996.47384644 25.66186523 C993.53187523 28.6053062 990.58811488 31.54694277 987.64306641 34.48730469 C983.88522005 38.23945949 980.1318745 41.9960793 976.37986946 45.7540741 C973.47675948 48.66081369 970.57125203 51.56514746 967.66503525 54.46878052 C966.28094141 55.85221144 964.89757845 57.23637402 963.51498795 58.62130737 C951.01748404 71.13533919 951.01748404 71.13533919 944.80099487 76.42138672 C941.16315802 79.61003409 937.80622806 83.09329572 934.40625 86.53125 C933.21980896 87.72337097 933.21980896 87.72337097 932.00939941 88.9395752 C929.50380477 91.45728432 927.00149142 93.97821446 924.5 96.5 C921.2008832 99.82588189 917.89835626 103.14832336 914.59375 106.46875 C913.85080688 107.21999146 913.10786377 107.97123291 912.34240723 108.74523926 C911.62806519 109.46288452 910.91372314 110.18052979 910.17773438 110.91992188 C909.25462463 111.85088684 909.25462463 111.85088684 908.31286621 112.80065918 C906.35988849 114.65777638 904.3694165 116.41588583 902.32743835 118.17256165 C898.20350111 121.7744363 894.30801254 125.55718471 890.44812012 129.43835449 C889.37440131 130.51185001 889.37440131 130.51185001 888.27899122 131.6070323 C885.90171019 133.98500301 883.52801422 136.36651926 881.15429688 138.74804688 C879.44220403 140.46206058 877.72988212 142.1758455 876.01734924 143.88941956 C872.33992778 147.56999423 868.66400571 151.25205933 864.98939514 154.93544006 C859.66844077 160.26899948 854.34420449 165.59927329 849.01908988 170.92867869 C840.36692213 179.58790097 831.71662517 188.24898933 823.06787109 196.91162109 C822.551136 197.429184 822.03440091 197.9467469 821.50200719 198.47999352 C817.83462143 202.15327907 814.16730289 205.82663172 810.5 209.5 C806.31075602 213.69617261 802.12148161 217.89231484 797.93212891 222.08837891 C797.41602969 222.60530625 796.89993048 223.12223359 796.3681919 223.65482539 C787.74995214 232.28677087 779.12973356 240.9167376 770.50811243 249.54530573 C765.19904907 254.85883802 759.89176554 260.17413611 754.58680165 265.49176133 C750.51947555 269.56854168 746.44958516 273.64275418 742.37876701 277.71604729 C740.71384739 279.38283486 739.04979041 281.05048464 737.38667488 282.71907234 C735.11073331 285.00226462 732.83168627 287.28231322 730.55187988 289.56164551 C729.89972362 290.21739673 729.24756736 290.87314795 728.57564878 291.54877043 C724.75124755 295.36470219 720.81018435 298.98871405 716.71474504 302.51265001 C714.64609978 304.30696895 712.68394407 306.1867364 710.74609375 308.12109375 C710.03646484 308.82943359 709.32683594 309.53777344 708.59570312 310.26757812 C707.88349609 310.98365234 707.17128906 311.69972656 706.4375 312.4375 C705.36338867 313.50581055 705.36338867 313.50581055 704.26757812 314.59570312 C703.55923828 315.30533203 702.85089844 316.01496094 702.12109375 316.74609375 C701.4964624 317.37185303 700.87183105 317.9976123 700.22827148 318.64233398 C698.34913046 320.63059572 696.5591699 322.6555451 694.7734375 324.7265625 C690.86611833 329.21573638 686.71658841 333.42762283 682.50390625 337.62890625 C681.71153061 338.42223862 680.91915497 339.21557098 680.10276794 340.03294373 C678.43749717 341.69889081 676.77097971 343.36359256 675.10327148 345.02709961 C672.56965378 347.55536134 670.04141833 350.08891661 667.51367188 352.62304688 C665.88573717 354.2503207 664.25749225 355.87728425 662.62890625 357.50390625 C661.88282608 358.25201065 661.13674591 359.00011505 660.36805725 359.77088928 C659.65048752 360.48530685 658.93291779 361.19972443 658.19360352 361.93579102 C657.57518082 362.55341812 656.95675812 363.17104523 656.31959534 363.80738831 C654.37753113 365.64313639 652.39982759 367.38590082 650.37413025 369.12686157 C645.30269298 373.54256538 640.57230295 378.28008149 635.8203125 383.03442383 C634.82426785 384.02746978 633.82802077 385.02031272 632.83158875 386.01296997 C630.14998293 388.68581446 627.47155922 391.36182504 624.79401016 394.03873277 C623.12009838 395.71193078 621.44547536 397.38441355 619.77059937 399.05664635 C613.92608944 404.89193652 608.08413585 410.72977168 602.24462891 416.57006836 C596.80043087 422.01486975 591.35065045 427.45403963 585.89828873 432.89066488 C581.21095623 437.56494973 576.52745866 442.24305337 571.84696579 446.92418689 C569.05371441 449.71769361 566.25892096 452.50961432 563.46026611 455.29770851 C560.83582519 457.91251256 558.216169 460.53201486 555.60019875 463.15529251 C554.17705521 464.57998937 552.74894479 465.99971928 551.32072449 467.41932678 C550.48245621 468.26178955 549.64418793 469.10425232 548.78051758 469.97224426 C548.0460994 470.70611768 547.31168121 471.43999109 546.55500793 472.1961031 C544.78235953 473.85553926 544.78235953 473.85553926 545 476 C546.78817495 477.15635313 548.63371811 478.22446886 550.5 479.25 C556.45534162 482.62187782 562.14114205 486.14114205 567 491 C567.37109375 493.20703125 567.37109375 493.20703125 567.4375 495.8125 C567.47746094 496.66457031 567.51742187 497.51664062 567.55859375 498.39453125 C566.6079817 502.82850494 563.66318729 504.91340029 559.96899414 507.3269043 C557.60718607 508.7434793 555.21887291 510.0980949 552.8125 511.4375 C551.09215611 512.41354835 549.37210053 513.39010505 547.65234375 514.3671875 C546.83749512 514.82706055 546.02264648 515.28693359 545.18310547 515.76074219 C542.72348482 517.15696612 540.29314353 518.5956885 537.875 520.0625 C533.68603163 522.59603414 529.47127705 525.08333729 525.25 527.5625 C518.24425291 531.67779753 511.24512659 535.80417388 504.25 539.9375 C503.30930664 540.4931665 502.36861328 541.04883301 501.39941406 541.62133789 C500.50963867 542.14719482 499.61986328 542.67305176 498.703125 543.21484375 C497.52218262 543.91275024 497.52218262 543.91275024 496.31738281 544.62475586 C494.65684904 545.61019483 493.01201885 546.62228369 491.37817383 547.65136719 C488.52712132 549.26816362 486.69261127 549.37135458 483.4375 549.3125 C482.50808594 549.30863281 481.57867187 549.30476562 480.62109375 549.30078125 C477.93904263 548.99300489 476.35189242 548.25678176 474 547 C453.73319247 567.24397318 433.46895922 587.49051988 413.20829406 607.74064061 C410.81393059 610.13375344 408.41954529 612.52684441 406.02514648 614.91992188 C405.54848429 615.39632176 405.0718221 615.87272164 404.5807156 616.36355788 C396.87227552 624.0676519 389.1620695 631.76997623 381.45120429 639.47164291 C373.53357342 647.37990763 365.6178922 655.29012073 357.70389229 663.20201921 C353.26103473 667.64357436 348.81730454 672.08424839 344.37145805 676.52281189 C340.18412643 680.70333976 335.99916552 684.88622639 331.81598473 689.07090759 C330.28303668 690.60358127 328.74923601 692.13540273 327.21450424 693.66629028 C325.11266788 695.76312132 323.01397529 697.86305151 320.91600037 699.96374512 C320.31383853 700.56299411 319.71167669 701.16224311 319.09126753 701.77965117 C316.15910966 704.72202829 313.34589109 707.71790872 310.63467503 710.86574554 C306.60792084 715.51755579 302.28762503 719.84493705 297.92919922 724.18432617 C297.03794279 725.07573146 296.14668636 725.96713675 295.22842216 726.88555431 C292.77444546 729.33982436 290.31738402 731.79098506 287.85978222 734.24162436 C285.20214514 736.89285218 282.54744384 739.54701683 279.89239502 742.20083618 C275.29687798 746.79347415 270.69959111 751.38433419 266.10113525 755.97402954 C259.44451354 762.61806352 252.79116176 769.26536445 246.13868403 775.9135474 C235.33314502 786.71202765 224.52573977 797.50863791 213.71679688 808.30371094 C213.07063754 808.94904246 212.4244782 809.59437399 211.75873828 810.25926101 C206.51632545 815.49492961 201.27382204 820.7305075 196.03131485 825.96608162 C191.44856858 830.54277502 186.8658585 835.11950465 182.28320312 839.69628906 C181.3151509 840.6630991 181.3151509 840.6630991 180.32754207 841.64944065 C169.55761718 852.40566819 158.78966456 863.16386807 148.02311134 873.9234705 C141.3890703 880.55303774 134.75325939 887.18082391 128.11513472 893.80630231 C123.56607432 898.34692111 119.01879673 902.88932015 114.47290277 907.43310905 C111.85257787 910.05209249 109.23143821 912.67024669 106.60807037 915.2861824 C103.75958726 918.1266263 100.91502959 920.97096998 98.07080078 923.81567383 C97.24773878 924.63514087 96.42467678 925.45460791 95.57667351 926.29890728 C91.38075784 930.50232185 87.35762499 934.78940601 83.4825418 939.29036999 C81.75594722 941.28143554 79.95262061 943.17317182 78.08987427 945.03710938 C77.4001503 945.72965317 76.71042633 946.42219696 75.99980164 947.13572693 C74.90379387 948.22869835 74.90379387 948.22869835 73.78564453 949.34375 C72.99618942 950.13495743 72.20673431 950.92616486 71.39335632 951.74134827 C68.80900134 954.33006996 66.22104746 956.91515801 63.6328125 959.5 C61.82902657 961.30445999 60.02538907 963.10906836 58.22189331 964.91381836 C54.45619193 968.68098927 50.68874763 972.44640496 46.91992188 976.21044922 C42.55933958 980.56556322 38.20240865 984.92430528 33.84730256 989.28489494 C29.6501509 993.48711964 25.45020594 997.68654376 21.24905014 1001.88476562 C19.46283331 1003.67031346 17.67736427 1005.45660967 15.89264297 1007.24365234 C13.41016125 1009.72865656 10.92452641 1012.21046188 8.43798828 1014.69140625 C7.32376244 1015.80866844 7.32376244 1015.80866844 6.18702698 1016.94850159 C5.17781944 1017.95347939 5.17781944 1017.95347939 4.14822388 1018.97875977 C3.56091555 1019.56569107 2.97360722 1020.15262238 2.36850166 1020.75733948 C1 1022 1 1022 0 1022 C0 684.74 0 347.48 0 0 Z " fill="#E87457" transform="translate(0,0)"/>
<path d="M0 0 C1.0109523 0.15308624 1.0109523 0.15308624 2.04232788 0.30926514 C10.33742018 1.60677714 17.90259697 3.643198 25.6875 6.75 C27.35856971 7.36126098 29.03171945 7.96686949 30.70703125 8.56640625 C32.30476493 9.14822492 33.90242196 9.73025411 35.5 10.3125 C36.30630859 10.60318359 37.11261719 10.89386719 37.94335938 11.19335938 C39.12575195 11.62551758 39.12575195 11.62551758 40.33203125 12.06640625 C41.02659424 12.31849854 41.72115723 12.57059082 42.43676758 12.83032227 C45.26664172 13.98664463 47.95903462 15.37350014 50.6875 16.75 C50.75744176 26.79121476 50.81053328 36.83237022 50.84293652 46.87378025 C50.8584994 51.53793084 50.87956318 56.20191306 50.91381836 60.8659668 C50.9467503 65.3788153 50.96442323 69.89150329 50.97213173 74.40446281 C50.97761523 76.11419128 50.98832027 77.82391236 51.00469017 79.53357124 C51.10407402 90.35744231 50.29304975 100.21564946 47.6875 110.75 C47.50071182 111.51437881 47.31392365 112.27875763 47.12147522 113.06629944 C42.90401444 128.97688047 34.08612639 141.21786114 22.6875 152.75 C21.98238281 153.52730469 21.27726563 154.30460938 20.55078125 155.10546875 C7.06931514 169.61409418 -12.15703964 179.46926622 -30.3125 186.75 C-31.18777344 187.15476562 -32.06304688 187.55953125 -32.96484375 187.9765625 C-35.73338755 188.88866179 -36.6052917 188.73669313 -39.3125 187.75 C-40.38757813 187.40066406 -41.46265625 187.05132813 -42.5703125 186.69140625 C-72.525736 176.21797497 -101.45965347 155.44771701 -115.6875 126.375 C-120.79553768 114.4266336 -124.49055406 101.76422761 -124.42602539 88.72509766 C-124.42617142 87.94393585 -124.42631744 87.16277405 -124.4264679 86.35794067 C-124.42577498 83.7932857 -124.41801184 81.22870468 -124.41015625 78.6640625 C-124.40828986 76.87901855 -124.406867 75.09397409 -124.40586853 73.30892944 C-124.40206075 68.62362235 -124.39224538 63.93834654 -124.38116455 59.25305176 C-124.37091297 54.46688256 -124.36636289 49.68070828 -124.36132812 44.89453125 C-124.35062149 35.51300713 -124.33356604 26.13150617 -124.3125 16.75 C-86.02140234 -2.92607779 -42.06741924 -6.42601521 0 0 Z " fill="#FCFDFD" transform="translate(737.3125,400.25)"/>
<path d="M0 0 C1.08149826 0.54362183 2.16299652 1.08724365 3.27726746 1.64733887 C4.51444267 2.27146667 4.51444267 2.27146667 5.77661133 2.90820312 C5.86998702 13.4191091 5.9407148 23.92991367 5.98386002 34.44115257 C6.00458521 39.32387495 6.03262125 44.20631006 6.07836914 49.08886719 C6.12237231 53.81570819 6.14586114 58.54227589 6.1561203 63.26930618 C6.16341534 65.05751463 6.17765497 66.845711 6.19953156 68.63380051 C6.4961075 93.91927368 0.02257695 113.49883166 -16.22338867 132.90820312 C-16.81893555 133.65585937 -17.41448242 134.40351562 -18.02807617 135.17382812 C-26.05386987 144.92766353 -36.81065355 151.94357477 -47.22338867 158.90820312 C-47.88467773 159.36839844 -48.5459668 159.82859375 -49.22729492 160.30273438 C-56.33889703 165.05971207 -64.40567361 168.48250363 -72.22338867 171.90820312 C-72.9169043 172.21983398 -73.61041992 172.53146484 -74.32495117 172.85253906 C-79.96995871 175.21625182 -83.41939424 174.89250687 -89.23901367 172.84960938 C-119.32977841 160.02105871 -147.58395718 140.46305306 -161.97729492 110.12695312 C-166.08377316 99.51962375 -168.3425392 88.11601018 -168.43212891 76.76318359 C-168.44191269 75.96893982 -168.45169647 75.17469604 -168.46177673 74.35638428 C-168.49152858 71.74606977 -168.51304858 69.13580519 -168.53198242 66.52539062 C-168.53855425 65.63121555 -168.54512608 64.73704048 -168.55189705 63.8157692 C-168.58438723 59.09089996 -168.60887403 54.36605246 -168.62841797 49.64111328 C-168.64628937 45.73192871 -168.68121649 41.82345757 -168.73095703 37.91455078 C-168.79102725 33.18726836 -168.82187266 28.46065141 -168.83159065 23.73300552 C-168.84016011 21.93319051 -168.85901497 20.13339405 -168.88833427 18.33379745 C-168.92711776 15.81987849 -168.92830308 13.30857905 -168.92041016 10.79443359 C-168.94041077 10.05148041 -168.96041138 9.30852722 -168.98101807 8.5430603 C-168.9516449 6.46188354 -168.9516449 6.46188354 -168.22338867 2.90820312 C-164.15651214 -0.57157383 -160.33264499 -1.72932852 -155.22338867 -3.09179688 C-153.78004884 -3.68187631 -152.34309512 -4.28768655 -150.91088867 -4.90429688 C-105.819288 -23.03529924 -43.64715189 -21.97391798 0 0 Z " fill="#FDFBFA" transform="translate(404.223388671875,414.091796875)"/>
<path d="M0 0 C1.0109523 0.15308624 1.0109523 0.15308624 2.04232788 0.30926514 C10.33742018 1.60677714 17.90259697 3.643198 25.6875 6.75 C27.35856971 7.36126098 29.03171945 7.96686949 30.70703125 8.56640625 C32.30476493 9.14822492 33.90242196 9.73025411 35.5 10.3125 C36.30630859 10.60318359 37.11261719 10.89386719 37.94335938 11.19335938 C39.12575195 11.62551758 39.12575195 11.62551758 40.33203125 12.06640625 C41.02659424 12.31849854 41.72115723 12.57059082 42.43676758 12.83032227 C45.26664172 13.98664463 47.95903462 15.37350014 50.6875 16.75 C50.75744176 26.79121476 50.81053328 36.83237022 50.84293652 46.87378025 C50.8584994 51.53793084 50.87956318 56.20191306 50.91381836 60.8659668 C50.9467503 65.3788153 50.96442323 69.89150329 50.97213173 74.40446281 C50.97761523 76.11419128 50.98832027 77.82391236 51.00469017 79.53357124 C51.10407402 90.35744231 50.29304975 100.21564946 47.6875 110.75 C47.50071182 111.51437881 47.31392365 112.27875763 47.12147522 113.06629944 C42.90401444 128.97688047 34.08612639 141.21786114 22.6875 152.75 C21.98238281 153.52730469 21.27726563 154.30460938 20.55078125 155.10546875 C7.06931514 169.61409418 -12.15703964 179.46926622 -30.3125 186.75 C-31.18777344 187.15476562 -32.06304688 187.55953125 -32.96484375 187.9765625 C-35.73338755 188.88866179 -36.6052917 188.73669313 -39.3125 187.75 C-40.38757813 187.40066406 -41.46265625 187.05132813 -42.5703125 186.69140625 C-72.525736 176.21797497 -101.45965347 155.44771701 -115.6875 126.375 C-120.79553768 114.4266336 -124.49055406 101.76422761 -124.42602539 88.72509766 C-124.42617142 87.94393585 -124.42631744 87.16277405 -124.4264679 86.35794067 C-124.42577498 83.7932857 -124.41801184 81.22870468 -124.41015625 78.6640625 C-124.40828986 76.87901855 -124.406867 75.09397409 -124.40586853 73.30892944 C-124.40206075 68.62362235 -124.39224538 63.93834654 -124.38116455 59.25305176 C-124.37091297 54.46688256 -124.36636289 49.68070828 -124.36132812 44.89453125 C-124.35062149 35.51300713 -124.33356604 26.13150617 -124.3125 16.75 C-86.02140234 -2.92607779 -42.06741924 -6.42601521 0 0 Z M-87.75 17.625 C-88.61302734 17.85574219 -89.47605469 18.08648437 -90.36523438 18.32421875 C-95.27946492 19.68867474 -99.94511032 21.37082174 -104.64477539 23.35595703 C-105.71055313 23.80472198 -106.77633087 24.25348694 -107.87440491 24.71585083 C-108.67897629 25.05712006 -109.48354767 25.39838928 -110.3125 25.75 C-110.42921552 35.12196496 -110.51762616 44.49367333 -110.57156086 53.86621094 C-110.5974689 58.21999083 -110.63251482 62.57326745 -110.68969727 66.92675781 C-110.74469869 71.14138613 -110.77406112 75.35553563 -110.78688622 79.57049561 C-110.79600572 81.16501385 -110.81380719 82.75951093 -110.84115028 84.3538208 C-111.22174979 107.50194587 -102.28590358 127.14906985 -86.3125 143.75 C-76.37494124 153.78190267 -64.87144053 161.11608603 -52.5 167.75 C-51.61658936 168.23130371 -50.73317871 168.71260742 -49.82299805 169.20849609 C-41.41320161 173.60751582 -41.41320161 173.60751582 -32.15258789 173.13037109 C-29.77787727 172.18069296 -27.52711044 171.10166978 -25.25 169.9375 C-24.42290527 169.52806152 -23.59581055 169.11862305 -22.74365234 168.69677734 C1.87480794 156.20983936 23.01972288 137.77300121 33.71484375 111.859375 C36.84017176 101.86836658 36.9534678 92.1691838 36.8828125 81.8046875 C36.87907517 80.18230363 36.87623161 78.55991747 36.87423706 76.93753052 C36.86665724 72.69939777 36.84705836 68.46140548 36.8248291 64.22332764 C36.80424787 59.88588358 36.79520927 55.54841648 36.78515625 51.2109375 C36.76380625 42.72389439 36.72973991 34.23696475 36.6875 25.75 C34.80806018 24.95780968 32.92766123 24.16789465 31.046875 23.37890625 C29.99983398 22.93877197 28.95279297 22.4986377 27.87402344 22.04516602 C15.5588597 17.03965394 2.99698992 15.13071389 -10.08862305 13.16723633 C-12.3125 12.75 -12.3125 12.75 -14.3125 11.75 C-17.29816735 11.62577757 -20.25936883 11.56145408 -23.24609375 11.546875 C-24.15263199 11.54117493 -25.05917023 11.53547485 -25.99317932 11.52960205 C-27.92586091 11.52013212 -29.8585588 11.5136102 -31.79125977 11.50976562 C-34.67951222 11.50023265 -37.56699825 11.46930541 -40.45507812 11.4375 C-56.67737413 11.34338482 -72.12167378 13.16664942 -87.75 17.625 Z " fill="#F8FAFA" transform="translate(737.3125,400.25)"/>
<path d="M0 0 C7.44630651 1.64163396 13.88867021 6.6012652 20.20703125 10.70703125 C21.24730469 11.37089844 22.28757812 12.03476562 23.359375 12.71875 C25.07494075 13.81405381 26.78810243 14.9131411 28.49780273 16.01757812 C31.04874475 17.60832506 33.62735753 19.05848206 36.27734375 20.4765625 C42.32339569 23.74960555 48.27099997 27.17675976 54.20703125 30.64453125 C55.20992187 31.22654297 56.2128125 31.80855469 57.24609375 32.40820312 C76.9442527 43.89879585 76.9442527 43.89879585 81.20703125 48.70703125 C81.7734375 51.109375 81.7734375 51.109375 81.76953125 53.64453125 C81.79144531 54.47855469 81.81335938 55.31257813 81.8359375 56.171875 C80.75848756 60.51513592 77.83193068 62.64479989 74.17651367 65.03442383 C71.81433588 66.45040501 69.42591547 67.80511985 67.01953125 69.14453125 C65.29918736 70.1205796 63.57913178 71.0971363 61.859375 72.07421875 C61.04452637 72.5340918 60.22967773 72.99396484 59.39013672 73.46777344 C56.93051607 74.86399737 54.50017478 76.30271975 52.08203125 77.76953125 C47.89306288 80.30306539 43.6783083 82.79036854 39.45703125 85.26953125 C32.45128416 89.38482878 25.45215784 93.51120513 18.45703125 97.64453125 C17.51633789 98.20019775 16.57564453 98.75586426 15.60644531 99.32836914 C14.71666992 99.85422607 13.82689453 100.38008301 12.91015625 100.921875 C12.12286133 101.387146 11.33556641 101.85241699 10.52441406 102.33178711 C8.86465775 103.3167647 7.21894164 104.32555255 5.58300781 105.34960938 C1.3676901 107.75786734 -3.10234865 107.60148884 -7.79296875 106.70703125 C-10.72802417 104.61147858 -12.18828224 101.91640428 -13.79296875 98.70703125 C-13.90713071 95.90138114 -13.96082294 93.11999017 -13.9699707 90.31347656 C-13.9765419 89.44500092 -13.9831131 88.57652527 -13.98988342 87.68173218 C-14.00963904 84.79953937 -14.02128462 81.91739875 -14.03125 79.03515625 C-14.03736329 77.55974491 -14.03736329 77.55974491 -14.04360008 76.05452728 C-14.0644714 70.84755156 -14.078768 65.64060227 -14.08813477 60.43359375 C-14.09919582 55.05548359 -14.1335893 49.67778757 -14.17330647 44.29982376 C-14.19945634 40.16480745 -14.20782521 36.02989 -14.21141624 31.89479828 C-14.21628714 29.91247514 -14.2279154 27.93015656 -14.24645424 25.94791412 C-14.27080882 23.17099761 -14.26988728 20.39515474 -14.26293945 17.61816406 C-14.27574951 16.80131134 -14.28855957 15.98445862 -14.30175781 15.14285278 C-14.25380799 9.87657827 -13.29589275 6.87532134 -9.79296875 2.70703125 C-6.19957713 0.31143684 -4.25526484 -0.06853282 0 0 Z " fill="#FDFDFC" transform="translate(485.79296875,442.29296875)"/>
<path d="M0 0 C2.882697 0.01080398 5.76478172 -0.00000059 8.64746094 -0.01269531 C10.50944146 -0.01137483 12.3714216 -0.00881474 14.23339844 -0.00488281 C15.08046356 -0.00893127 15.92752869 -0.01297974 16.80026245 -0.01715088 C22.44724858 0.02670295 27.5237588 0.89984464 32.99121094 2.26074219 C34.57810463 2.55203823 36.16748995 2.83073211 37.76074219 3.08496094 C69.11914352 8.38867477 69.11914352 8.38867477 74.99121094 14.26074219 C75.10143083 16.46673274 75.14035963 18.67629993 75.15234375 20.88500977 C75.15730865 21.57789093 75.16227356 22.27077209 75.16738892 22.98464966 C75.18206369 25.29153423 75.18882631 27.59834972 75.19433594 29.90527344 C75.20008931 31.51177471 75.20584702 33.11827598 75.21160889 34.72477722 C75.2221382 38.105177 75.22796614 41.48555291 75.23144531 44.8659668 C75.23689095 49.16842674 75.26082523 53.47056389 75.28941727 57.77292347 C75.30818957 61.09924688 75.31325725 64.42549543 75.31478119 67.75186729 C75.3177827 69.33567734 75.32572522 70.91948686 75.33896637 72.5032444 C75.52723135 96.78342937 66.69082362 116.07657799 49.92871094 133.41699219 C38.81820048 144.43790175 24.98539234 152.46906799 11.05371094 159.38574219 C9.8896875 159.96582031 8.72566406 160.54589844 7.52636719 161.14355469 C-0.0637848 163.54221046 -5.47943717 160.88881374 -12.23022461 157.41479492 C-13.69842651 156.62697632 -13.69842651 156.62697632 -15.19628906 155.82324219 C-16.2156958 155.2819165 -17.23510254 154.74059082 -18.28540039 154.18286133 C-26.23381183 149.86985323 -33.19479112 145.20427061 -40.00878906 139.26074219 C-41.03977614 138.40235339 -42.07103137 137.54428656 -43.10253906 136.68652344 C-57.61569067 124.32186507 -68.45568372 107.14116916 -72.00878906 88.26074219 C-72.40224054 82.50196426 -72.36012336 76.76822288 -72.30175781 70.99902344 C-72.29615053 69.35565074 -72.29188579 67.71227297 -72.28889465 66.06889343 C-72.27753487 61.77973156 -72.24814603 57.49088287 -72.21478271 53.20184326 C-72.18388869 48.81071202 -72.17034834 44.41952931 -72.15527344 40.02832031 C-72.12326617 31.43898517 -72.07217965 22.84990283 -72.00878906 14.26074219 C-63.8218281 10.76694621 -55.80431262 7.84559477 -47.19628906 5.57324219 C-45.6059082 5.13141602 -45.6059082 5.13141602 -43.98339844 4.68066406 C-29.30528055 0.74823633 -15.10048231 -0.06738973 0 0 Z M-62.00878906 20.26074219 C-62.10197384 29.04990462 -62.17279747 37.8388938 -62.21603775 46.62844467 C-62.23680384 50.71097161 -62.26491702 54.79315753 -62.31054688 58.87548828 C-62.35440132 62.82424461 -62.37800844 66.7726755 -62.38829803 70.7216568 C-62.39561915 72.2189775 -62.40991297 73.71628288 -62.43170929 75.21346283 C-62.69278057 93.9108918 -56.30480845 108.30009924 -44.00878906 122.26074219 C-42.96851563 123.46150391 -42.96851563 123.46150391 -41.90722656 124.68652344 C-31.62390773 135.76494424 -14.94766664 148.24743436 0.11621094 151.38574219 C17.08239904 150.8384458 36.28909901 133.74032578 47.63574219 122.04199219 C52.03184836 116.85123332 55.58642203 111.13731037 58.99121094 105.26074219 C59.508125 104.39964844 60.02503906 103.53855469 60.55761719 102.65136719 C64.95072966 92.26111751 65.4117383 81.66366536 65.28417969 70.55371094 C65.27856702 69.09255922 65.27430485 67.63140175 65.27131653 66.17024231 C65.25999889 62.37099933 65.230649 58.57211425 65.19720459 54.77301025 C65.16621714 50.87769407 65.15275068 46.98231863 65.13769531 43.08691406 C65.10576294 35.478029 65.05473075 27.86943621 64.99121094 20.26074219 C52.37490338 16.17514171 52.37490338 16.17514171 39.49121094 13.07324219 C38.69626221 12.91307617 37.90131348 12.75291016 37.08227539 12.58789062 C4.00284536 6.10470526 -30.42042316 8.18036632 -62.00878906 20.26074219 Z " fill="#5482A8" transform="translate(699.0087890625,411.7392578125)"/>
<path d="M0 0 C0.91199158 0.00204437 1.82398315 0.00408875 2.76361084 0.00619507 C39.83669759 0.14101365 39.83669759 0.14101365 55.79736328 6.65014648 C57.97278739 7.52733362 60.17099627 8.27302658 62.3984375 9.0078125 C63.17574219 9.26433594 63.95304688 9.52085937 64.75390625 9.78515625 C65.53636719 10.04167969 66.31882812 10.29820312 67.125 10.5625 C68.71660299 11.08454578 70.30777129 11.60791929 71.8984375 12.1328125 C72.59114746 12.35984863 73.28385742 12.58688477 73.99755859 12.82080078 C75.75 13.4375 75.75 13.4375 77.75 14.4375 C77.75 25.6575 77.75 36.8775 77.75 48.4375 C74.45 48.4375 71.15 48.4375 67.75 48.4375 C67.75 39.1975 67.75 29.9575 67.75 20.4375 C65.44 20.1075 63.13 19.7775 60.75 19.4375 C58.76079757 18.86724412 56.78163431 18.26110387 54.8125 17.625 C44.34461079 14.53426547 33.52633913 13.0574106 22.75 11.4375 C21.61771973 11.25952881 20.48543945 11.08155762 19.31884766 10.89819336 C-4.89121308 7.77297892 -29.08026183 11.14232537 -52.05029297 18.82080078 C-54.73272396 19.57283415 -57.50204918 19.9795082 -60.25 20.4375 C-60.25 29.6775 -60.25 38.9175 -60.25 48.4375 C-63.55 48.4375 -66.85 48.4375 -70.25 48.4375 C-70.25 37.2175 -70.25 25.9975 -70.25 14.4375 C-59.64844685 10.13061903 -49.48155544 6.34465492 -38.31088257 3.89151001 C-36.43622024 3.4785241 -34.56437007 3.05282467 -32.69287109 2.62573242 C-21.74887274 0.32843935 -11.15982914 -0.07536146 0 0 Z " fill="#EA785C" transform="translate(319.25,411.5625)"/>
<path d="M0 0 C3.3 0 6.6 0 10 0 C10.24492187 0.70382812 10.48984375 1.40765625 10.7421875 2.1328125 C20.52911971 27.98381274 42.91611144 43.99362942 67.03515625 55.50390625 C72.26263798 56.82376744 77.01375011 53.74718289 81.5625 51.4375 C82.27067871 51.07817383 82.97885742 50.71884766 83.70849609 50.34863281 C105.09454655 39.2910452 124.12117021 23.3753127 132 0 C135.3 0 138.6 0 142 0 C140.9536285 16.04436295 127.10895425 31.24987623 115.61816406 41.609375 C106.6215674 49.34091009 96.45223313 55.46090696 86 61 C84.84886719 61.61488281 83.69773437 62.22976563 82.51171875 62.86328125 C81.39410156 63.42402344 80.27648437 63.98476563 79.125 64.5625 C77.64386719 65.30693359 77.64386719 65.30693359 76.1328125 66.06640625 C69.10559514 68.16055207 63.74897184 65.7334169 57.54101562 62.51000977 C56.22133789 61.79349243 56.22133789 61.79349243 54.875 61.0625 C53.48958008 60.31987915 53.48958008 60.31987915 52.07617188 59.56225586 C31.92538205 48.55479915 15.73151924 34.51618415 4.5625 14.25 C4.21985107 13.63600342 3.87720215 13.02200684 3.52416992 12.3894043 C1.29196455 8.16795856 0.42593545 4.67929088 0 0 Z " fill="#EB775B" transform="translate(252,507)"/>
<path d="M0 0 C3.5 1.875 3.5 1.875 6 4 C6 4.66 6 5.32 6 6 C9.59096113 3.91188011 9.59096113 3.91188011 12.8125 1.3125 C16.13678521 -0.68207112 19.29422332 -0.75768668 23 0 C26.32997935 1.72240311 29.29896971 3.59793943 31 7 C31.51816286 11.79937735 31.71207367 15.73409126 29.3125 20 C25.82328588 23.01769869 23.23863181 23.83640712 18.6875 24.4375 C13.86578739 23.8654324 10.86713837 21.81246427 7 19 C7 19.66 7 20.32 7 21 C1.35783399 23.41807115 -2.84987125 24.80657426 -9 24 C-12 21.625 -12 21.625 -14 19 C-14 18.34 -14 17.68 -14 17 C-14.66 17 -15.32 17 -16 17 C-16.49303103 12.97357995 -16.86992855 9.4579358 -14.734375 5.87890625 C-10.33314957 0.74058239 -6.95186633 -0.96553699 0 0 Z " fill="#5885AA" transform="translate(481,630)"/>
<path d="M0 0 C0.66 0 1.32 0 2 0 C2.51046875 1.17755859 2.51046875 1.17755859 3.03125 2.37890625 C8.05320028 13.26425062 13.78827324 18.82155554 25 23 C25 23.66 25 24.32 25 25 C24.21496094 25.3403125 23.42992187 25.680625 22.62109375 26.03125 C11.73574938 31.05320028 6.17844446 36.78827324 2 48 C1.34 48 0.68 48 0 48 C-0.3403125 47.21496094 -0.680625 46.42992187 -1.03125 45.62109375 C-6.05320028 34.73574938 -11.78827324 29.17844446 -23 25 C-23 24.34 -23 23.68 -23 23 C-22.21496094 22.6596875 -21.42992187 22.319375 -20.62109375 21.96875 C-9.73574938 16.94679972 -4.17844446 11.21172676 0 0 Z " fill="#A1BCD1" transform="translate(967,944)"/>
<path d="M0 0 C2.64 0 5.28 0 8 0 C10.31 4.29 12.62 8.58 15 13 C17.31 8.71 19.62 4.42 22 0 C24.64 0 27.28 0 30 0 C30 9.24 30 18.48 30 28 C28.02 28 26.04 28 24 28 C23.67 22.72 23.34 17.44 23 12 C20.69 16.29 18.38 20.58 16 25 C10.30652134 22.15326067 9.63351519 18.70594958 7 13 C6.67 17.95 6.34 22.9 6 28 C4.02 28 2.04 28 0 28 C0 18.76 0 9.52 0 0 Z " fill="#E9785D" transform="translate(310,469)"/>
<path d="M0 0 C3.933053 1.60645827 6.60558942 3.40838413 9 7 C9.76768116 11.6864257 9.40885085 15.19690011 7.25 19.4375 C4.64874001 22.40004609 2.70257049 23.65019915 -1.1484375 24.44140625 C-7.04117435 24.76188843 -7.04117435 24.76188843 -9.8828125 22.50390625 C-12.84971064 19.05685793 -14.84598435 16.33480233 -15.375 11.75 C-14.87794743 6.77947435 -13.48839777 5.48839777 -10 2 C-6.22786948 -0.51475368 -4.47964158 -0.44796416 0 0 Z " fill="#E9EDF1" transform="translate(546,663)"/>
<path d="M0 0 C3.33146085 1.71350472 6.30074561 3.60149122 8 7 C8.51816286 11.79937735 8.71207367 15.73409126 6.3125 20 C2.75471898 23.0769998 0.14880956 23.85639881 -4.5 24.4375 C-8.94128199 23.88233975 -10.18726506 22.37528192 -13 19 C-13.66 18.34 -14.32 17.68 -15 17 C-15.73165994 12.19316432 -15.72224838 8.19544559 -13.1875 4 C-8.99735199 0.16900754 -5.59605663 -1.03327554 0 0 Z " fill="#ECEFF1" transform="translate(504,630)"/>
<path d="M0 0 C14.46969697 0 14.46969697 0 20 5 C21.77988759 8.55977519 21.59005705 12.12160416 21 16 C19.74387579 19.66570864 18.30621884 21.92322937 15 24 C9.71579407 24.70124781 5.43483911 24.38139222 0 24 C0 16.08 0 8.16 0 0 Z " fill="#F4F5F6" transform="translate(516,630)"/>
<path d="M0 0 C2.37109375 1.52734375 2.37109375 1.52734375 4 3 C3.34 4.65 2.68 6.3 2 8 C1.505 7.835 1.01 7.67 0.5 7.5 C-3.03444089 6.79311182 -6.39690701 6.93994845 -10 7 C-10 7.99 -10 8.98 -10 10 C-9.25234375 10.18175781 -8.5046875 10.36351562 -7.734375 10.55078125 C-6.74953125 10.80214844 -5.7646875 11.05351562 -4.75 11.3125 C-3.77546875 11.55613281 -2.8009375 11.79976563 -1.796875 12.05078125 C1.05618985 13.01907002 2.85046552 13.89566601 5 16 C5.61712546 20.78272228 5.72784513 22.85970929 3.125 26.9375 C-0.70749963 30.65727905 -4.00317774 30.32112232 -9.15625 30.30078125 C-13.29336759 29.8632015 -15.64020284 28.38918909 -19 26 C-18 24 -17 22 -16 20 C-15.34 20 -14.68 20 -14 20 C-13.67 20.66 -13.34 21.32 -13 22 C-10.64400765 22.46751788 -10.64400765 22.46751788 -7.9375 22.625 C-7.01839844 22.69976562 -6.09929688 22.77453125 -5.15234375 22.8515625 C-4.44207031 22.90054687 -3.73179687 22.94953125 -3 23 C-2.67 21.68 -2.34 20.36 -2 19 C-3.22976563 18.76216797 -3.22976563 18.76216797 -4.484375 18.51953125 C-13.21279213 16.6297663 -13.21279213 16.6297663 -16.8125 13.75 C-18.44207812 9.97624014 -18.20835252 7.9093758 -17 4 C-12.96287781 -1.42923329 -6.18784878 -0.94477471 0 0 Z " fill="#6187AB" transform="translate(695,468)"/>
<path d="M0 0 C2.875 1.52734375 2.875 1.52734375 5 3 C4.25 4.9375 4.25 4.9375 3 7 C-0.1962905 8.23365598 -2.47602511 7.88099372 -5.75 7.0625 C-6.54921875 6.86785156 -7.3484375 6.67320312 -8.171875 6.47265625 C-9.07679688 6.23869141 -9.07679688 6.23869141 -10 6 C-10 7.32 -10 8.64 -10 10 C-9.41992188 10.09796875 -8.83984375 10.1959375 -8.2421875 10.296875 C-2.9116106 11.31724946 0.74793843 12.59835074 5 16 C6.44430855 18.88861709 6.37688506 20.79647701 6 24 C3.00787765 27.63906772 0.74941717 29.72767678 -4.05078125 30.203125 C-9.11672657 30.30811869 -12.6592747 29.92998958 -17 27 C-17.33 26.01 -17.66 25.02 -18 24 C-17.01 22.515 -17.01 22.515 -16 21 C-15.360625 21.33 -14.72125 21.66 -14.0625 22 C-9.98763159 23.33056928 -6.24809575 23.16659199 -2 23 C-2 22.01 -2 21.02 -2 20 C-2.83144531 19.75765625 -3.66289063 19.5153125 -4.51953125 19.265625 C-5.60621094 18.93046875 -6.69289063 18.5953125 -7.8125 18.25 C-8.89144531 17.92515625 -9.97039063 17.6003125 -11.08203125 17.265625 C-14.24346376 15.89440126 -15.37352698 14.99759533 -17 12 C-17.64795209 9.23540441 -17.5692785 6.77807906 -17 4 C-13.13653775 -1.51923178 -6.10853914 -0.90165937 0 0 Z " fill="#6288AB" transform="translate(722,468)"/>
<path d="M0 0 C2.371875 -0.103125 4.74375 -0.20625 7.1875 -0.3125 C7.92508545 -0.35802002 8.6626709 -0.40354004 9.42260742 -0.45043945 C13.31100956 -0.53183072 14.86101783 -0.11077751 17.92578125 2.33203125 C21.18298272 6.52161431 21.35903523 9.79398919 21 15 C19.17764445 19.22019181 17.09243826 21.00493635 13 23 C8.62713126 23.38448436 4.40061175 23.13335187 0 23 C0 15.41 0 7.82 0 0 Z " fill="#E1E8ED" transform="translate(609,664)"/>
<path d="M0 0 C1.98 0 3.96 0 6 0 C6 3.96 6 7.92 6 12 C10.29 12 14.58 12 19 12 C19 8.04 19 4.08 19 0 C20.98 0 22.96 0 25 0 C25 9.24 25 18.48 25 28 C23.02 28 21.04 28 19 28 C19 24.37 19 20.74 19 17 C15.04 17 11.08 17 7 17 C7 20.96 7 24.92 7 29 C4.69 29 2.38 29 0 29 C0 19.43 0 9.86 0 0 Z " fill="#EA7B61" transform="translate(253,469)"/>
<path d="M0 0 C1.65 0 3.3 0 5 0 C5.21914063 0.49886719 5.43828125 0.99773438 5.6640625 1.51171875 C8.29811212 7.47580671 11.04267685 13.3823978 13.828125 19.27734375 C15 22 15 22 15 24 C13.35 24 11.7 24 10 24 C9.34 22.02 8.68 20.04 8 18 C4.37 18 0.74 18 -3 18 C-3.33 19.65 -3.66 21.3 -4 23 C-5 24 -5 24 -7.13305664 24.11352539 C-8.04949951 24.10828857 -8.96594238 24.10305176 -9.91015625 24.09765625 C-10.800979 24.09515869 -11.69180176 24.09266113 -12.60961914 24.09008789 C-13.74906982 24.08098389 -14.88852051 24.07187988 -16.0625 24.0625 C-19.671875 24.041875 -23.28125 24.02125 -27 24 C-27 16.41 -27 8.82 -27 1 C-25.68 1 -24.36 1 -23 1 C-23 7.27 -23 13.54 -23 20 C-18.71 20 -14.42 20 -10 20 C-10 20.66 -10 21.32 -10 22 C-9.34 22 -8.68 22 -8 22 C-7.90847656 21.18273437 -7.81695312 20.36546875 -7.72265625 19.5234375 C-6.84363464 15.23761321 -5.2473016 11.58864469 -3.4375 7.625 C-3.10814453 6.88894531 -2.77878906 6.15289063 -2.43945312 5.39453125 C-1.63252195 3.59355443 -0.8171174 1.79637819 0 0 Z " fill="#EAEFF1" transform="translate(445,663)"/>
<path d="M0 0 C6.27 0 12.54 0 19 0 C19 1.65 19 3.3 19 5 C14.71 5 10.42 5 6 5 C6 6.65 6 8.3 6 10 C7.8253125 9.9071875 7.8253125 9.9071875 9.6875 9.8125 C13.58249203 9.80559399 15.87690125 10.53937675 19 13 C20.60964787 16.21929573 20.60686242 19.51887712 20 23 C17.46546343 26.21954645 15.88702695 27.70432435 12 29 C6.5704369 29.35029439 3.49997019 29.37497764 -1 26 C-0.67 24.35 -0.34 22.7 0 21 C1.32 20.67 2.64 20.34 4 20 C4 20.66 4 21.32 4 22 C6.64 22 9.28 22 12 22 C12.38218767 20.34385343 12.71395102 18.67542976 13 17 C11.91447634 15.68737429 11.91447634 15.68737429 9.27734375 15.90234375 C8.17519531 15.91394531 7.07304687 15.92554688 5.9375 15.9375 C2.9984375 15.9684375 2.9984375 15.9684375 0 16 C0 10.72 0 5.44 0 0 Z " fill="#EE785B" transform="translate(372,469)"/>
<path d="M0 0 C2.48050929 1.16432069 4.09425952 2.09425952 6 4 C6.23961213 8.23314767 6.32488647 11.36736489 4 15 C4.7425 15.5259375 4.7425 15.5259375 5.5 16.0625 C7 18 7 18 7.5625 21.375 C7 25 7 25 4.625 27.9375 C1.06785573 30.48313405 -2.30510912 30.641868 -6.5859375 30.44140625 C-10.20358678 29.77992669 -12.20736202 28.35169514 -15 26 C-14.1875 24.0625 -14.1875 24.0625 -13 22 C-12.01 21.67 -11.02 21.34 -10 21 C-9.67 21.66 -9.34 22.32 -9 23 C-6.36 23 -3.72 23 -1 23 C-0.40929986 21.05396726 -0.40929986 21.05396726 0 19 C-1.96822886 17.03177114 -5.34808709 17.33751619 -8 17 C-8 15.35 -8 13.7 -8 12 C-5.69 11.34 -3.38 10.68 -1 10 C-1 9.01 -1 8.02 -1 7 C-6.24443104 6.82419274 -6.24443104 6.82419274 -11.375 7.625 C-11.91125 7.74875 -12.4475 7.8725 -13 8 C-13.66 7.34 -14.32 6.68 -15 6 C-14.875 4 -14.875 4 -14 2 C-9.61166904 -0.77829454 -5.02595943 -0.55301819 0 0 Z " fill="#5884AC" transform="translate(746,468)"/>
<path d="M0 0 C1.640625 1.09765625 1.640625 1.09765625 3.953125 3.09765625 C2.203125 6.97265625 2.203125 6.97265625 -0.046875 8.09765625 C-0.583125 7.78828125 -1.119375 7.47890625 -1.671875 7.16015625 C-5.34538488 5.51674394 -8.02684057 5.71479583 -12.046875 6.09765625 C-14.40797526 7.86848144 -14.88978698 9.12728975 -15.35546875 12.00390625 C-15.57356677 15.54634689 -15.39150683 17.54624531 -13.484375 20.59765625 C-10.15890564 22.64409894 -7.88381087 22.51623107 -4.046875 22.09765625 C-3.056875 21.43765625 -2.066875 20.77765625 -1.046875 20.09765625 C-0.056875 20.09765625 0.933125 20.09765625 1.953125 20.09765625 C1.953125 20.75765625 1.953125 21.41765625 1.953125 22.09765625 C2.613125 22.09765625 3.273125 22.09765625 3.953125 22.09765625 C3.953125 23.08765625 3.953125 24.07765625 3.953125 25.09765625 C-1.57815912 28.39288934 -5.5798801 29.9321072 -12.046875 29.09765625 C-17.33799704 26.35034288 -21.14062744 22.81639892 -23.046875 17.09765625 C-23.52710657 12.29534056 -23.60227765 9.33502192 -20.859375 5.28515625 C-15.62344302 -1.06758116 -7.89926305 -3.48230871 0 0 Z " fill="#5D88AD" transform="translate(669.046875,468.90234375)"/>
<path d="M0 0 C13.19405906 -0.49323585 13.19405906 -0.49323585 16.9296875 1.79296875 C19 4 19 4 19.4375 7.5625 C19 11 19 11 17 14 C16.34 14 15.68 14 15 14 C15.9590625 15.6396875 15.9590625 15.6396875 16.9375 17.3125 C18.26601325 19.5838291 19.15813297 21.47439892 20 24 C18.02 24 16.04 24 14 24 C13.443125 22.865625 12.88625 21.73125 12.3125 20.5625 C10.5777124 17.44531169 10.5777124 17.44531169 7.25 16.0625 C6.5075 16.041875 5.765 16.02125 5 16 C5 18.64 5 21.28 5 24 C3.35 24 1.7 24 0 24 C0 16.08 0 8.16 0 0 Z " fill="#E2E9EE" transform="translate(509,663)"/>
<path d="M0 0 C12.17981073 -0.49211356 12.17981073 -0.49211356 15.890625 1.734375 C18.23182434 4.24899652 18.66057614 5.13079614 18.5625 8.5 C18.36623496 11.478322 18.04609283 12.91783451 16.5625 15.5625 C12.7722199 17.68875469 9.25016698 17.32693592 5 17 C5 19.31 5 21.62 5 24 C3.35 24 1.7 24 0 24 C0 16.08 0 8.16 0 0 Z " fill="#E0E6EB" transform="translate(396,663)"/>
<path d="M0 0 C5.5755203 1.11510406 6.78016817 2.59334408 9.8125 6.9375 C10.21919922 7.48857422 10.62589844 8.03964844 11.04492188 8.60742188 C14 12.69486607 14 12.69486607 14 15 C14.66 15 15.32 15 16 15 C16 10.38 16 5.76 16 1 C17.32 1 18.64 1 20 1 C20 8.59 20 16.18 20 24 C14.21914495 22.84382899 12.88952316 20.93930737 9.6875 16.4375 C9.23310547 15.82197266 8.77871094 15.20644531 8.31054688 14.57226562 C7.19475681 13.05714017 6.09569629 11.52971967 5 10 C4.67 14.62 4.34 19.24 4 24 C2.68 24 1.36 24 0 24 C0 16.08 0 8.16 0 0 Z " fill="#EFF3F5" transform="translate(584,663)"/>
<path d="M0 0 C2.875 1.5 2.875 1.5 5 3 C4.67 3.99 4.34 4.98 4 6 C3.39671875 5.97679687 2.7934375 5.95359375 2.171875 5.9296875 C1.37265625 5.91164063 0.5734375 5.89359375 -0.25 5.875 C-1.43335938 5.84019531 -1.43335938 5.84019531 -2.640625 5.8046875 C-5.20731941 6.0171622 -6.7916067 6.71345895 -9 8 C-9.020625 9.258125 -9.04125 10.51625 -9.0625 11.8125 C-9.07410156 12.52019531 -9.08570313 13.22789062 -9.09765625 13.95703125 C-9.08263217 16.20305461 -9.08263217 16.20305461 -8 19 C-5.03 19 -2.06 19 1 19 C1.33 17.68 1.66 16.36 2 15 C0.02 15 -1.96 15 -4 15 C-4 13.68 -4 12.36 -4 11 C-0.37 11 3.26 11 7 11 C7 14.63 7 18.26 7 22 C1.75614911 23.7479503 -2.47322267 24.19392201 -8 24 C-8 23.34 -8 22.68 -8 22 C-8.598125 21.7525 -9.19625 21.505 -9.8125 21.25 C-12.44496795 19.7457326 -13.5540968 18.67492092 -15 16 C-15.5494224 11.76159866 -15.29119754 9.56082489 -13.3125 5.75 C-9.38343214 1.07759497 -6.17266888 -0.77158361 0 0 Z " fill="#E6ECEF" transform="translate(498,663)"/>
<path d="M0 0 C1.98 0 3.96 0 6 0 C6 7.59 6 15.18 6 23 C10.95 23 15.9 23 21 23 C21 24.98 21 26.96 21 29 C14.07 29 7.14 29 0 29 C0 19.43 0 9.86 0 0 Z " fill="#EB7E63" transform="translate(346,469)"/>
<path d="M0 0 C7.92 0 15.84 0 24 0 C24 1.65 24 3.3 24 5 C21.03 5 18.06 5 15 5 C15 12.92 15 20.84 15 29 C13.02 29 11.04 29 9 29 C9 21.08 9 13.16 9 5 C6.03 5 3.06 5 0 5 C0 3.35 0 1.7 0 0 Z " fill="#EA7D63" transform="translate(282,469)"/>
<path d="M0 0 C5.94 0 11.88 0 18 0 C18 1.32 18 2.64 18 4 C13.71 4 9.42 4 5 4 C5 5.65 5 7.3 5 9 C8.63 9 12.26 9 16 9 C16 10.32 16 11.64 16 13 C12.37 13 8.74 13 5 13 C5 14.98 5 16.96 5 19 C9.29 19 13.58 19 18 19 C18 20.32 18 21.64 18 23 C12.06 23 6.12 23 0 23 C0 15.41 0 7.82 0 0 Z " fill="#EAEFF2" transform="translate(541,631)"/>
<path d="M0 0 C2.475 0.495 2.475 0.495 5 1 C5.33 6.61 5.66 12.22 6 18 C8.31 18 10.62 18 13 18 C15.11925604 15.88074396 14.41831017 11.3803907 14.5625 8.4375 C14.60568359 7.63119141 14.64886719 6.82488281 14.69335938 5.99414062 C14.79975262 3.99631195 14.90040888 1.9981793 15 0 C16.65 0 18.3 0 20 0 C20.08126109 2.72977064 20.14061663 5.4571017 20.1875 8.1875 C20.21263672 8.95642578 20.23777344 9.72535156 20.26367188 10.51757812 C20.32402455 15.20496942 20.00682418 18.16777311 17 22 C14.06013441 24.28656212 10.66427041 24.63435512 6.97265625 24.46875 C4.038385 23.77149743 2.40226625 22.20827859 0.83203125 19.6875 C-1.11054372 13.41289165 -0.32835562 6.48684763 0 0 Z " fill="#E3EAEE" transform="translate(559,663)"/>
<path d="M0 0 C3 1.5 3 1.5 5 3 C4.34 4.32 3.68 5.64 3 7 C2.01 6.67 1.02 6.34 0 6 C-1.56118428 5.93259135 -3.1250252 5.91485544 -4.6875 5.9375 C-5.49574219 5.94652344 -6.30398438 5.95554687 -7.13671875 5.96484375 C-7.75160156 5.97644531 -8.36648438 5.98804688 -9 6 C-10.59352059 9.18704118 -10.3829977 12.53174309 -10 16 C-9.03882095 18.12870693 -9.03882095 18.12870693 -7 19 C-3.04269405 19.42098999 -0.39731629 19.09065618 3 17 C3.66 18.32 4.32 19.64 5 21 C-0.01752776 24.01051666 -3.2877735 24.7253621 -9 24 C-12 21.625 -12 21.625 -14 19 C-14 18.34 -14 17.68 -14 17 C-14.66 17 -15.32 17 -16 17 C-16.49303103 12.97357995 -16.86992855 9.4579358 -14.734375 5.87890625 C-10.28129476 0.68004316 -7.0009265 -0.80316556 0 0 Z " fill="#E6EAED" transform="translate(481,630)"/>
<path d="M0 0 C4.875 1.75 4.875 1.75 6 4 C6.69948799 11.11146121 6.69948799 11.11146121 3.6875 14.9375 C-0.58900525 18.21946914 -4.73939171 18.61407879 -10 18 C-13 16.5 -13 16.5 -15 15 C-14.67 13.35 -14.34 11.7 -14 10 C-12.68 9.67 -11.36 9.34 -10 9 C-10 9.66 -10 10.32 -10 11 C-7.36 11 -4.72 11 -2 11 C-1.61781233 9.34385343 -1.28604898 7.67542976 -1 6 C-2.96822886 4.03177114 -6.34808709 4.33751619 -9 4 C-9 3.67 -9 3.34 -9 3 C-2.25 2 -2.25 2 0 2 C0 1.34 0 0.68 0 0 Z " fill="#EC846B" transform="translate(386,480)"/>
<path d="M0 0 C2.5 1.5625 2.5 1.5625 4 4 C4.5625 7.5 4.5625 7.5 4 11 C1.4268383 13.95156784 -0.21802472 14.85637189 -4.0625 15.5625 C-7 15 -7 15 -9.375 12.9375 C-11.385629 9.30290142 -11.53110151 7.0970688 -11 3 C-8.82838986 -1.20749464 -4.17761299 -0.73969808 0 0 Z " fill="#5F89AD" transform="translate(504,635)"/>
<path d="M0 0 C0.33 0 0.66 0 1 0 C1.28571429 7.42857143 1.28571429 7.42857143 -1 11 C-0.2575 11.5259375 -0.2575 11.5259375 0.5 12.0625 C2 14 2 14 2.5625 17.375 C2 21 2 21 -0.375 23.9375 C-3.93214427 26.48313405 -7.30510912 26.641868 -11.5859375 26.44140625 C-15.20358678 25.77992669 -17.20736202 24.35169514 -20 22 C-19.1875 20.0625 -19.1875 20.0625 -18 18 C-17.01 17.67 -16.02 17.34 -15 17 C-14.67 17.66 -14.34 18.32 -14 19 C-11.36 19 -8.72 19 -6 19 C-4.98888907 15.95086772 -4.98888907 15.95086772 -6 13 C-5.01 13 -4.02 13 -3 13 C-3 11.35 -3 9.7 -3 8 C-2.34 8 -1.68 8 -1 8 C-0.67 5.36 -0.34 2.72 0 0 Z " fill="#618CB1" transform="translate(751,472)"/>
<path d="M0 0 C1.21236328 0.04060547 1.21236328 0.04060547 2.44921875 0.08203125 C3.06410156 0.11683594 3.67898438 0.15164063 4.3125 0.1875 C6.42167681 4.03463851 6.78600812 6.7680909 6.3125 11.1875 C4.6875 13.625 4.6875 13.625 2.3125 15.1875 C-1.28896865 15.78774477 -2.96609404 15.64312482 -6.0625 13.6875 C-8.49414499 9.94650771 -8.17924842 7.61323582 -7.6875 3.1875 C-5.46422239 0.06365424 -3.7238303 -0.16190567 0 0 Z " fill="#5281A6" transform="translate(543.6875,667.8125)"/>
<path d="M0 0 C2.1875 -0.5 2.1875 -0.5 5 0 C6.53605754 1.98989272 7.70499154 4.03281801 8.88671875 6.25 C9.25410156 6.8275 9.62148438 7.405 10 8 C10.66 8 11.32 8 12 8 C12.598125 7.030625 13.19625 6.06125 13.8125 5.0625 C16 2 16 2 18.75 1.125 C19.4925 1.08375 20.235 1.0425 21 1 C19.43358249 5.30764815 17.31663844 9.06171464 15 13 C14.34 13 13.68 13 13 13 C13 16.63 13 20.26 13 24 C11.68 24 10.36 24 9 24 C9 20.37 9 16.74 9 13 C8.34 13 7.68 13 7 13 C6.20724852 11.5839401 5.41584688 10.16712447 4.625 8.75 C3.96371094 7.56664062 3.96371094 7.56664062 3.2890625 6.359375 C2.14252177 4.26085803 1.05350448 2.1463923 0 0 Z " fill="#EEF1F3" transform="translate(460,663)"/>
<path d="M0 0 C7.28358209 -0.35820896 7.28358209 -0.35820896 10 1 C11.63278358 4.26556715 11.6227188 7.48305406 11 11 C9.4375 13.5 9.4375 13.5 7 15 C4.69 15 2.38 15 0 15 C0 10.05 0 5.1 0 0 Z " fill="#5481A7" transform="translate(521,635)"/>
<path d="M0 0 C2.64 0 5.28 0 8 0 C8 0.66 8 1.32 8 2 C8.99 2.33 9.98 2.66 11 3 C11.48192771 10.22891566 11.48192771 10.22891566 9.4375 13.5 C7 15 7 15 0 15 C0 10.05 0 5.1 0 0 Z " fill="#5585AB" transform="translate(614,668)"/>
<path d="M0 0 C1.32 0 2.64 0 4 0 C4 6.27 4 12.54 4 19 C7.96 19 11.92 19 16 19 C16 19.99 16 20.98 16 22 C10.72 22 5.44 22 0 22 C0 14.74 0 7.48 0 0 Z " fill="#F2F5F6" transform="translate(418,664)"/>
<path d="M0 0 C3.96 0 7.92 0 12 0 C12 0.33 12 0.66 12 1 C8.37 1 4.74 1 1 1 C1.33 6.61 1.66 12.22 2 18 C2.66 18 3.32 18 4 18 C4 13.38 4 8.76 4 4 C6.64 4 9.28 4 12 4 C12 4.33 12 4.66 12 5 C9.69 5 7.38 5 5 5 C5 9.95 5 14.9 5 20 C11.51148111 19.33289777 11.51148111 19.33289777 16 16 C14.125 19.875 14.125 19.875 13 21 C13.99 21.66 14.98 22.32 16 23 C15 24 15 24 11.62109375 24.09765625 C10.22652508 24.09191424 8.83198403 24.07890228 7.4375 24.0625 C4.983125 24.041875 2.52875 24.02125 0 24 C0 16.08 0 8.16 0 0 Z " fill="#CCD7E0" transform="translate(516,630)"/>
<path d="M0 0 C1.98 0 3.96 0 6 0 C5.34 0.66 4.68 1.32 4 2 C3.6936141 4.73434962 3.4886664 7.38279821 3.375 10.125 C3.33632813 10.87910156 3.29765625 11.63320313 3.2578125 12.41015625 C3.16348969 14.27303184 3.08065338 16.13648255 3 18 C5.64 18 8.28 18 11 18 C10.67 18.99 10.34 19.98 10 21 C6.7 21 3.4 21 0 21 C0 14.07 0 7.14 0 0 Z " fill="#FAFCFD" transform="translate(610,665)"/>
<path d="M0 0 C0.66 0.66 1.32 1.32 2 2 C1.44444444 6.55555556 1.44444444 6.55555556 0 8 C-5.52941176 8.23529412 -5.52941176 8.23529412 -8 7 C-8 6.34 -8 5.68 -8 5 C-8.99 4.67 -9.98 4.34 -11 4 C-10.67 3.01 -10.34 2.02 -10 1 C-6.47940432 -0.17353189 -3.693507 -0.20146402 0 0 Z " fill="#F9F2EF" transform="translate(384,484)"/>
<path d="M0 0 C0.66 0 1.32 0 2 0 C1.67 0.99 1.34 1.98 1 3 C0.88164222 5.31463704 0.82298911 7.63246295 0.79467773 9.94995117 C0.78477814 10.65264633 0.77487854 11.35534149 0.76467896 12.07933044 C0.73310766 14.40050901 0.70832387 16.72170805 0.68359375 19.04296875 C0.66302044 20.65294423 0.64202387 22.26291436 0.62062073 23.87287903 C0.56543894 28.10936138 0.51601251 32.34589216 0.46777344 36.5824585 C0.41752999 40.90592761 0.36185877 45.22932644 0.30664062 49.55273438 C0.19910666 58.03509681 0.09765113 66.51751807 0 75 C-0.33 75 -0.66 75 -1 75 C-1.02312465 65.36887288 -1.04091571 55.73775526 -1.05181217 46.10660648 C-1.05704074 41.63494451 -1.06413789 37.16330147 -1.07543945 32.69165039 C-1.08626929 28.37988027 -1.09227704 24.06812841 -1.09487724 19.75634575 C-1.09673132 18.10763702 -1.1003516 16.45892934 -1.10573006 14.81022835 C-1.11294178 12.50896128 -1.11399089 10.2077706 -1.11352539 7.90649414 C-1.115746 6.5941127 -1.11796661 5.28173126 -1.12025452 3.92958069 C-1 1 -1 1 0 0 Z " fill="#638EB0" transform="translate(628,425)"/>
<path d="M0 0 C0.33 0 0.66 0 1 0 C1.125 6.75 1.125 6.75 0 9 C-0.66 9 -1.32 9 -2 9 C-2 10.65 -2 12.3 -2 14 C-5.3 14 -8.6 14 -12 14 C-12 12.35 -12 10.7 -12 9 C-11.36191406 8.89042969 -10.72382812 8.78085937 -10.06640625 8.66796875 C-9.24011719 8.50941406 -8.41382813 8.35085938 -7.5625 8.1875 C-6.73878906 8.03667969 -5.91507813 7.88585937 -5.06640625 7.73046875 C-4.38449219 7.48941406 -3.70257812 7.24835938 -3 7 C-2.67 6.01 -2.34 5.02 -2 4 C-1.34 4 -0.68 4 0 4 C0 2.68 0 1.36 0 0 Z " fill="#547FA7" transform="translate(750,471)"/>
<path d="M0 0 C0.33 0 0.66 0 1 0 C1.28571429 7.42857143 1.28571429 7.42857143 -1 11 C-0.505 11.350625 -0.01 11.70125 0.5 12.0625 C2.73063966 14.94374289 2.19980621 17.47009026 2 21 C0.02 20.67 -1.96 20.34 -4 20 C-4.66 17.69 -5.32 15.38 -6 13 C-5.01 13 -4.02 13 -3 13 C-3 11.35 -3 9.7 -3 8 C-2.34 8 -1.68 8 -1 8 C-0.67 5.36 -0.34 2.72 0 0 Z " fill="#5D88AE" transform="translate(751,472)"/>
<path d="M0 0 C6.15234375 -0.09765625 6.15234375 -0.09765625 8 0 C9 1 9 1 9.125 3.5 C9 6 9 6 8 7 C5.32941149 7.14115161 2.67567762 7.04247107 0 7 C0 4.69 0 2.38 0 0 Z " fill="#5E8BAD" transform="translate(514,668)"/>
<path d="M0 0 C3.375 -0.125 3.375 -0.125 7 0 C7.66 0.66 8.32 1.32 9 2 C8.46428571 5.53571429 8.46428571 5.53571429 7 7 C4.66702567 7.04092937 2.33294775 7.04241723 0 7 C0 4.69 0 2.38 0 0 Z " fill="#5A87AC" transform="translate(401,668)"/>
<path d="M0 0 C1.74959319 2.62438979 2.62068453 3.96547627 3 7 C2.01 8.485 2.01 8.485 1 10 C-1.24658203 10.34057617 -1.24658203 10.34057617 -4.0078125 10.29296875 C-4.99394531 10.28330078 -5.98007812 10.27363281 -6.99609375 10.26367188 C-8.02863281 10.23853516 -9.06117188 10.21339844 -10.125 10.1875 C-11.68541016 10.16719727 -11.68541016 10.16719727 -13.27734375 10.14648438 C-15.85207627 10.11105228 -18.4257833 10.06165221 -21 10 C-21 9.67 -21 9.34 -21 9 C-15.72 9 -10.44 9 -5 9 C-4.67 8.01 -4.34 7.02 -4 6 C-4 6.66 -4 7.32 -4 8 C-3.34 8 -2.68 8 -2 8 C-1.7834375 6.576875 -1.7834375 6.576875 -1.5625 5.125 C-1 2 -1 2 0 0 Z " fill="#C9D7DF" transform="translate(439,677)"/>
<path d="M0 0 C0.66 0 1.32 0 2 0 C2.33 0.66 2.66 1.32 3 2 C5.02463255 2.65213292 5.02463255 2.65213292 7 3 C7 3.66 7 4.32 7 5 C6.01 5.33 5.02 5.66 4 6 C3.67 6.66 3.34 7.32 3 8 C6.96 8.33 10.92 8.66 15 9 C15 9.33 15 9.66 15 10 C7.71304215 10.474377 3.02818509 10.28670939 -3 6 C-2 4 -1 2 0 0 Z " fill="#7399B8" transform="translate(679,488)"/>
<path d="M0 0 C0.33 0 0.66 0 1 0 C1.12375 1.093125 1.2475 2.18625 1.375 3.3125 C1.75464801 7.07381802 1.75464801 7.07381802 4 10 C4 10.66 4 11.32 4 12 C3.34 12 2.68 12 2 12 C1.34 13.32 0.68 14.64 0 16 C-2 14.1875 -2 14.1875 -4 12 C-4 11.01 -4 10.02 -4 9 C-3.525625 8.566875 -3.05125 8.13375 -2.5625 7.6875 C-0.37899018 5.3293094 -0.34733049 3.12597439 0 0 Z " fill="#6591B1" transform="translate(528,668)"/>
<path d="M0 0 C2.475 0.99 2.475 0.99 5 2 C4.67 3.65 4.34 5.3 4 7 C7.3 7.33 10.6 7.66 14 8 C14 8.33 14 8.66 14 9 C8.25610776 9.34463353 3.95481327 9.34449896 -1 6 C-1.33 5.01 -1.66 4.02 -2 3 C-1.34 2.01 -0.68 1.02 0 0 Z " fill="#7197B5" transform="translate(706,489)"/>
<path d="M0 0 C4.67461851 -0.32613618 7.16674383 0.29417212 11 3 C10.67 3.99 10.34 4.98 10 6 C6.37 6 2.74 6 -1 6 C-0.67 5.34 -0.34 4.68 0 4 C0.66 4 1.32 4 2 4 C2 3.34 2 2.68 2 2 C1.34 1.34 0.68 0.68 0 0 Z " fill="#D3DFE7" transform="translate(492,663)"/>
<path d="M0 0 C1.91595968 -0.08133791 3.83291932 -0.13934367 5.75 -0.1875 C7.35101562 -0.23970703 7.35101562 -0.23970703 8.984375 -0.29296875 C12.30027855 0.02917214 13.59016673 0.77148914 16 3 C15.34 4.65 14.68 6.3 14 8 C8.06 7.01 8.06 7.01 2 6 C2 5.67 2 5.34 2 5 C3.62490954 4.97301811 5.24994633 4.95361243 6.875 4.9375 C7.77992188 4.92589844 8.68484375 4.91429687 9.6171875 4.90234375 C12 5 12 5 14 6 C10.87085918 2.7286255 8.86532554 1.88653255 4.375 1.4375 C3.55773437 1.35371094 2.74046875 1.26992188 1.8984375 1.18359375 C1.27195312 1.12300781 0.64546875 1.06242187 0 1 C0 0.67 0 0.34 0 0 Z " fill="#789BBA" transform="translate(683,468)"/>
<path d="M0 0 C2.31 0.33 4.62 0.66 7 1 C6.67 2.65 6.34 4.3 6 6 C-0.75 6.125 -0.75 6.125 -3 5 C-3 4.34 -3 3.68 -3 3 C-2.01 3 -1.02 3 0 3 C0 2.01 0 1.02 0 0 Z " fill="#5886AC" transform="translate(493,677)"/>
<path d="M0 0 C0.33 0 0.66 0 1 0 C1 1.65 1 3.3 1 5 C3.31 5 5.62 5 8 5 C7.67 5.66 7.34 6.32 7 7 C4.36 7 1.72 7 -1 7 C-1.33 7.66 -1.66 8.32 -2 9 C-2.33 7.02 -2.66 5.04 -3 3 C-2.34 3 -1.68 3 -1 3 C-0.67 2.01 -0.34 1.02 0 0 Z " fill="#F7F8F7" transform="translate(443,673)"/>
<path d="M0 0 C0 0.66 0 1.32 0 2 C0.66 2 1.32 2 2 2 C2 2.99 2 3.98 2 5 C0.35 5.66 -1.3 6.32 -3 7 C-3.99 5.35 -4.98 3.7 -6 2 C-3 0 -3 0 0 0 Z " fill="#6A93B4" transform="translate(671,489)"/>
<path d="M0 0 C0.66 0 1.32 0 2 0 C2.33 0.66 2.66 1.32 3 2 C5.32156597 2.40729228 7.6568787 2.74438677 10 3 C10 3.33 10 3.66 10 4 C7.94921875 4.22786458 5.8984375 4.45572917 3.84765625 4.68359375 C1.98859771 4.81886614 1.98859771 4.81886614 1 6 C0.01 6 -0.98 6 -2 6 C-2 2 -2 2 0 0 Z " fill="#7197B7" transform="translate(734,489)"/>
<path d="M0 0 C0 0.33 0 0.66 0 1 C-1.98 1 -3.96 1 -6 1 C-6 1.66 -6 2.32 -6 3 C-3.69 3.33 -1.38 3.66 1 4 C1 4.33 1 4.66 1 5 C-0.27875 5.144375 -1.5575 5.28875 -2.875 5.4375 C-5.25692894 5.70642746 -6.84452691 5.92226346 -9 7 C-9 6.01 -9 5.02 -9 4 C-9.66 3.67 -10.32 3.34 -11 3 C-7.48550811 -0.37391222 -4.73940561 -0.27342725 0 0 Z " fill="#C9D7E0" transform="translate(546,663)"/>
<path d="M0 0 C2.31 0 4.62 0 7 0 C8.125 1.75 8.125 1.75 9 4 C8.125 6.25 8.125 6.25 7 8 C4.69 8 2.38 8 0 8 C0 7.67 0 7.34 0 7 C1.98 6.67 3.96 6.34 6 6 C6 5.01 6 4.02 6 3 C4.02 2.34 2.04 1.68 0 1 C0 0.67 0 0.34 0 0 Z " fill="#7599B7" transform="translate(714,485)"/>
<path d="M0 0 C1.5 1.25 1.5 1.25 3 3 C3 4.32 3 5.64 3 7 C1.35 7 -0.3 7 -2 7 C-1.125 1.125 -1.125 1.125 0 0 Z " fill="#628DB2" transform="translate(447,670)"/>
<path d="M0 0 C-0.33 1.98 -0.66 3.96 -1 6 C0.65 6 2.3 6 4 6 C4.33 5.34 4.66 4.68 5 4 C5 4.99 5 5.98 5 7 C2.69 7 0.38 7 -2 7 C-2.33 5.68 -2.66 4.36 -3 3 C-3.33 3.66 -3.66 4.32 -4 5 C-4.66 5 -5.32 5 -6 5 C-5.6875 3.0625 -5.6875 3.0625 -5 1 C-2 0 -2 0 0 0 Z " fill="#CED8E0" transform="translate(446,671)"/>
<path d="M0 0 C0.33 0 0.66 0 1 0 C1 5.61 1 11.22 1 17 C0.67 17 0.34 17 0 17 C-0.33 13.37 -0.66 9.74 -1 6 C-1.99 6.495 -1.99 6.495 -3 7 C-1.125 1.125 -1.125 1.125 0 0 Z " fill="#F4E1D9" transform="translate(333,480)"/>
<path d="M0 0 C2 3 2 3 2 5 C1.34 5 0.68 5 0 5 C-0.66 6.32 -1.32 7.64 -2 9 C-2.99 8.01 -3.98 7.02 -5 6 C-4.360625 5.38125 -3.72125 4.7625 -3.0625 4.125 C-0.96116416 2.17402388 -0.96116416 2.17402388 0 0 Z " fill="#5888AB" transform="translate(530,675)"/>
<path d="M0 0 C2.31 0.33 4.62 0.66 7 1 C7.33 1.99 7.66 2.98 8 4 C5.36 3.67 2.72 3.34 0 3 C0 2.01 0 1.02 0 0 Z " fill="#4D7BA3" transform="translate(689,470)"/>
<path d="M0 0 C2.31 0 4.62 0 7 0 C7 0.99 7 1.98 7 3 C4.69 3 2.38 3 0 3 C0 2.01 0 1.02 0 0 Z " fill="#EC6E50" transform="translate(283,470)"/>
<path d="M0 0 C0.5775 0.226875 1.155 0.45375 1.75 0.6875 C0.6671875 1.30625 0.6671875 1.30625 -0.4375 1.9375 C-3.22969862 3.67486803 -5.72012585 5.59131857 -8.25 7.6875 C-6.86345583 3.41232214 -5.12511737 -0.71182186 0 0 Z " fill="#F8E4DD" transform="translate(481.25,443.3125)"/>
<path d="M0 0 C1.32 0 2.64 0 4 0 C3.25 1.9375 3.25 1.9375 2 4 C0 4.875 0 4.875 -2 5 C-2.66 4.34 -3.32 3.68 -4 3 C-2.68 3 -1.36 3 0 3 C0 2.01 0 1.02 0 0 Z " fill="#6E93B4" transform="translate(723,471)"/>
<path d="M0 0 C2.05078125 0.03255208 4.1015625 0.06510417 6.15234375 0.09765625 C6.15234375 0.42765625 6.15234375 0.75765625 6.15234375 1.09765625 C5.07984375 1.38640625 4.00734375 1.67515625 2.90234375 1.97265625 C0.05834011 2.82585734 -2.28274608 3.66130655 -4.84765625 5.09765625 C-2.44354091 0.12915121 -2.44354091 0.12915121 0 0 Z " fill="#DBE4EB" transform="translate(658.84765625,473.90234375)"/>
<path d="M0 0 C1.98 0.495 1.98 0.495 4 1 C4 2.32 4 3.64 4 5 C2.35 4.67 0.7 4.34 -1 4 C-0.67 2.68 -0.34 1.36 0 0 Z " fill="#4D7BA2" transform="translate(683,492)"/>
<path d="M0 0 C0.66 0 1.32 0 2 0 C2 0.66 2 1.32 2 2 C2.639375 2.268125 3.27875 2.53625 3.9375 2.8125 C6 4 6 4 7 7 C3.17053157 5.54744301 1.87949705 3.57104439 0 0 Z " fill="#6390B4" transform="translate(648,489)"/>
<path d="M0 0 C0.66 0.33 1.32 0.66 2 1 C2 1.66 2 2.32 2 3 C2.99 3.66 3.98 4.32 5 5 C3.125 5.625 3.125 5.625 1 6 C0.34 5.34 -0.32 4.68 -1 4 C-0.625 1.875 -0.625 1.875 0 0 Z " fill="#80A2BF" transform="translate(732,470)"/>
</svg>
